# xmcd
#
# Track frame offsets:
# 150
# 11065
# 26300
# 37742
# 51552
# 72792
# 84787
# 95842
# 113925
# 131245
# 151750
# 176365
# 197845
# 217912
# 228385
# 243940
#
# Disc length: 3326 seconds
#
#
# Revision: 3
# Processed by: cddbd v1.5.2PL0 Copyright (c) Steve Scherf et al.
# Submitted via: FreeRIP 2.945 
#
DISCID=ca0cfc10
DTITLE=Celso Blues Boy - Vivo
DYEAR=1991
DGENRE=Blues
TTITLE0=Tempos Difíceis
TTITLE1=Blues Motel
TTITLE2=Fumando Na Escuridão
TTITLE3=A Isso Chamam Blues
TTITLE4=Sempre Brilhará
TTITLE5=Atrás Do Tempo Perdido
TTITLE6=Me Diga O Que é O Amor
TTITLE7=Damas Da Noite
TTITLE8=Sem Ninguém
TTITLE9=Amor Vazio
TTITLE10=De Um Jeito Blues
TTITLE11=Brilho Da Noite
TTITLE12=Aquarela Do Brasil (In Blues)
TTITLE13=Marginal
TTITLE14=Aumenta Que Isso Aí é Rock'N Roll
TTITLE15=Até A Próxima Blues
EXTD=YEAR: 1991
EXTT0=
EXTT1=
EXTT2=
EXTT3=
EXTT4=
EXTT5=
EXTT6=
EXTT7=
EXTT8=
EXTT9=
EXTT10=
EXTT11=
EXTT12=
EXTT13=
EXTT14=
EXTT15=
PLAYORDER=
